# xmcd
#
# Track frame offsets:
#	150
#	21222
#	39072
#	53355
#	67512
#	80785
#	94290
#	105167
#	122547
#	139370
#	155470
#	168367
#	183390
#	199950
#	214837
#	228825
#	243409
#	259570
#	275960
#	291802
#
# Disc length: 4099 seconds
#
# Revision: 0
# Processed by: cddbd v1.5.2PL0 Copyright (c) Steve Scherf et al.
# Submitted via: EasyCDDAExtractor 10.5.1.1
#
DISCID=0f100114
DTITLE=Various Artist - Illan varjoon himmeään - Tanssiorkesterien parhaat  C
DTITLE=D4
DYEAR=1900
DGENRE=Easy Listening
TTITLE0=Finlanders - Yksin oon  ( Tietenkin )  Alone Again  ( Naturally )
TTITLE1=Kääriäinen,  Jorma and Agents - Laivat
TTITLE2=A. Aallon Rytmiorkesteri - Tähdet meren yllä
TTITLE3=Yölintu - Pieni lintunen
TTITLE4=Hoikka,  Lasse and Souvarit - Tanssi kanssain
TTITLE5=Korsuorkesteri - Terijoen salavien alla
TTITLE6=Solistiyhtye Suomi - Rilluttele yö  ( Puttin'  On The Ritz )
TTITLE7=Yölintu - Mahdunko maailmaas
TTITLE8=A. Aallon Rytmiorkesteri - Onnen satama
TTITLE9=Hoikka,  Lasse and Souvarit - Tähtiyö ja kuutamo
TTITLE10=Solistiyhtye Suomi - Sataman valot  ( Harbour Lights )
TTITLE11=Finlanders - Vastaus
TTITLE12=Kääriäinen,  Jorma and Agents - Oi kuu  ( Blue Moon )
TTITLE13=A. Aallon Rytmiorkesteri - Mun pitäis tietää
TTITLE14=Solistiyhtye Suomi - Elämän tsa tsa tsa
TTITLE15=Hoikka,  Lasse and Souvarit - Sinisenä lintuna haluaisin lentää
TTITLE16=A. Aallon Rytmiorkesteri - Sun vain
TTITLE17=Kääriäinen,  Jorma and Agents - Sinä vain  ( Un mal pour un bien )
TTITLE18=Yölintu - Salattu suru  ( My Heart Must Do The Cruing )
TTITLE19=Hoikka,  Lasse and Souvarit - Kulkuri ja joutsen
EXTD=
EXTT0=
EXTT1=
EXTT2=
EXTT3=
EXTT4=
EXTT5=
EXTT6=
EXTT7=
EXTT8=
EXTT9=
EXTT10=
EXTT11=
EXTT12=
EXTT13=
EXTT14=
EXTT15=
EXTT16=
EXTT17=
EXTT18=
EXTT19=
PLAYORDER=
